<svg width="335" height="357" viewBox="0 0 335 357" fill="none" xmlns="http://www.w3.org/2000/svg">
<path d="M20.1585 79.4939C47.781 42.7616 98.5374 52.0828 111.9 55.2934C120.946 42.5545 132.479 30.3679 147.188 19.6313C225.566 -37.6422 234.647 48.6305 234.647 48.6305C229.123 33.4749 196.217 10.6553 145.392 45.9722C74.8511 95.0292 80.0649 175.744 80.0649 175.744C80.0649 175.744 74.2642 124.822 99.9531 74.9024C84.8643 74.1083 46.7797 75.9035 35.5926 112.498C17.3963 172.05 87.3158 223.8 89.1458 225.146C52.2007 205.502 -20.2394 133.142 20.1585 79.4939Z" fill="#E5E4E2"/>
<path d="M251.979 223.42C253.429 265.227 226.98 364.135 160.306 355.987C114.695 350.429 97.3616 301.821 93.4944 288.668C77.9568 287.183 61.5905 283.282 44.9479 275.929C-43.8584 236.676 26.3373 185.686 26.3373 185.686C15.9789 198.045 12.6641 237.954 68.6687 264.295C146.426 300.854 213.721 255.975 213.721 255.975C213.721 255.975 172.529 286.458 116.421 289.151C123.258 302.615 143.871 334.721 181.161 326.091C241.827 312.074 251.702 225.664 251.944 223.385L251.979 223.42Z" fill="#E5E4E2"/>
<path d="M249.216 297.506C265.098 300.303 301.318 283.214 296.139 221.556C288.923 135.974 216.414 100.105 216.414 100.105C216.414 100.105 263.441 120.542 293.826 167.769C302.078 155.099 319.549 121.233 293.446 93.2345C250.976 47.6988 171.182 82.3598 169.11 83.2919C204.605 61.1282 303.494 34.5802 329.77 96.3761C347.759 138.667 314.336 177.954 304.875 187.896C311.366 202.12 316.166 218.207 318.099 236.297C328.492 332.789 249.25 297.541 249.25 297.541L249.216 297.506Z" fill="#E5E4E2"/>
<path d="M222.259 178.261L198.065 181.851C184.125 183.976 173.163 194.89 171.086 208.83L167.496 233.024L163.909 208.831C161.811 194.867 150.874 183.93 136.934 181.856L112.741 178.269L136.959 174.654C150.9 172.578 161.862 161.616 163.938 147.676L167.529 123.482L171.116 147.675C173.19 161.615 184.15 172.576 198.09 174.65L222.308 178.261L222.259 178.261Z" fill="#E5E4E2"/>
</svg>
